<mxfile host="65bd71144e">
    <diagram id="C5RBs43oDa-KdzZeNtuy" name="Page-1">
        <mxGraphModel dx="1582" dy="731" grid="1" gridSize="10" guides="1" tooltips="1" connect="1" arrows="1" fold="1" page="1" pageScale="1" pageWidth="1169" pageHeight="1654" math="0" shadow="0">
            <root>
                <mxCell id="WIyWlLk6GJQsqaUBKTNV-0"/>
                <mxCell id="WIyWlLk6GJQsqaUBKTNV-1" parent="WIyWlLk6GJQsqaUBKTNV-0"/>
                <mxCell id="zkfFHV4jXpPFQw0GAbJ--0" value="Bartender" style="swimlane;fontStyle=2;align=center;verticalAlign=top;childLayout=stackLayout;horizontal=1;startSize=26;horizontalStack=0;resizeParent=1;resizeLast=0;collapsible=1;marginBottom=0;rounded=0;shadow=0;strokeWidth=1;" parent="WIyWlLk6GJQsqaUBKTNV-1" vertex="1">
                    <mxGeometry x="280" y="169" width="160" height="316" as="geometry">
                        <mxRectangle x="230" y="140" width="160" height="26" as="alternateBounds"/>
                    </mxGeometry>
                </mxCell>
                <mxCell id="zkfFHV4jXpPFQw0GAbJ--2" value="+ wine : IWine*" style="text;align=left;verticalAlign=top;spacingLeft=4;spacingRight=4;overflow=hidden;rotatable=0;points=[[0,0.5],[1,0.5]];portConstraint=eastwest;rounded=0;shadow=0;html=0;" parent="zkfFHV4jXpPFQw0GAbJ--0" vertex="1">
                    <mxGeometry y="26" width="160" height="26" as="geometry"/>
                </mxCell>
                <mxCell id="zkfFHV4jXpPFQw0GAbJ--3" value="+ beer: IBeer*" style="text;align=left;verticalAlign=top;spacingLeft=4;spacingRight=4;overflow=hidden;rotatable=0;points=[[0,0.5],[1,0.5]];portConstraint=eastwest;rounded=0;shadow=0;html=0;" parent="zkfFHV4jXpPFQw0GAbJ--0" vertex="1">
                    <mxGeometry y="52" width="160" height="26" as="geometry"/>
                </mxCell>
                <mxCell id="oFZf1y7Qb0xrdnDtwELs-0" value="+ smoothie: ISmoothie*" style="text;align=left;verticalAlign=top;spacingLeft=4;spacingRight=4;overflow=hidden;rotatable=0;points=[[0,0.5],[1,0.5]];portConstraint=eastwest;rounded=0;shadow=0;html=0;" parent="zkfFHV4jXpPFQw0GAbJ--0" vertex="1">
                    <mxGeometry y="78" width="160" height="26" as="geometry"/>
                </mxCell>
                <mxCell id="zkfFHV4jXpPFQw0GAbJ--4" value="" style="line;html=1;strokeWidth=1;align=left;verticalAlign=middle;spacingTop=-1;spacingLeft=3;spacingRight=3;rotatable=0;labelPosition=right;points=[];portConstraint=eastwest;" parent="zkfFHV4jXpPFQw0GAbJ--0" vertex="1">
                    <mxGeometry y="104" width="160" height="32" as="geometry"/>
                </mxCell>
                <mxCell id="zkfFHV4jXpPFQw0GAbJ--5" value="+ makewine(): void&#10;" style="text;align=left;verticalAlign=top;spacingLeft=4;spacingRight=4;overflow=hidden;rotatable=0;points=[[0,0.5],[1,0.5]];portConstraint=eastwest;" parent="zkfFHV4jXpPFQw0GAbJ--0" vertex="1">
                    <mxGeometry y="136" width="160" height="30" as="geometry"/>
                </mxCell>
                <mxCell id="oFZf1y7Qb0xrdnDtwELs-1" value="+ makebeer(): void&#10;" style="text;align=left;verticalAlign=top;spacingLeft=4;spacingRight=4;overflow=hidden;rotatable=0;points=[[0,0.5],[1,0.5]];portConstraint=eastwest;" parent="zkfFHV4jXpPFQw0GAbJ--0" vertex="1">
                    <mxGeometry y="166" width="160" height="30" as="geometry"/>
                </mxCell>
                <mxCell id="oFZf1y7Qb0xrdnDtwELs-2" value="+ makesmoothie(): void&#10;" style="text;align=left;verticalAlign=top;spacingLeft=4;spacingRight=4;overflow=hidden;rotatable=0;points=[[0,0.5],[1,0.5]];portConstraint=eastwest;" parent="zkfFHV4jXpPFQw0GAbJ--0" vertex="1">
                    <mxGeometry y="196" width="160" height="30" as="geometry"/>
                </mxCell>
                <mxCell id="oFZf1y7Qb0xrdnDtwELs-6" value="+ set_wine(): void" style="text;align=left;verticalAlign=top;spacingLeft=4;spacingRight=4;overflow=hidden;rotatable=0;points=[[0,0.5],[1,0.5]];portConstraint=eastwest;" parent="zkfFHV4jXpPFQw0GAbJ--0" vertex="1">
                    <mxGeometry y="226" width="160" height="30" as="geometry"/>
                </mxCell>
                <mxCell id="oFZf1y7Qb0xrdnDtwELs-9" value="+ set_beer(): void" style="text;align=left;verticalAlign=top;spacingLeft=4;spacingRight=4;overflow=hidden;rotatable=0;points=[[0,0.5],[1,0.5]];portConstraint=eastwest;" parent="zkfFHV4jXpPFQw0GAbJ--0" vertex="1">
                    <mxGeometry y="256" width="160" height="30" as="geometry"/>
                </mxCell>
                <mxCell id="oFZf1y7Qb0xrdnDtwELs-10" value="+ set_smoothie(): void" style="text;align=left;verticalAlign=top;spacingLeft=4;spacingRight=4;overflow=hidden;rotatable=0;points=[[0,0.5],[1,0.5]];portConstraint=eastwest;" parent="zkfFHV4jXpPFQw0GAbJ--0" vertex="1">
                    <mxGeometry y="286" width="160" height="30" as="geometry"/>
                </mxCell>
                <mxCell id="oFZf1y7Qb0xrdnDtwELs-3" value="&lt;p style=&quot;margin:0px;margin-top:4px;text-align:center;&quot;&gt;&lt;i&gt;&amp;lt;&amp;lt;Interface&amp;gt;&amp;gt;&lt;/i&gt;&lt;br&gt;&lt;b&gt;IWine&lt;/b&gt;&lt;/p&gt;&lt;hr size=&quot;1&quot;&gt;&lt;p style=&quot;margin:0px;margin-left:4px;&quot;&gt;+ makewine(): virtual void&lt;/p&gt;&lt;p style=&quot;margin:0px;margin-left:4px;&quot;&gt;&lt;br&gt;&lt;/p&gt;" style="verticalAlign=top;align=left;overflow=fill;fontSize=12;fontFamily=Helvetica;html=1;whiteSpace=wrap;" parent="WIyWlLk6GJQsqaUBKTNV-1" vertex="1">
                    <mxGeometry x="625" y="49" width="190" height="80" as="geometry"/>
                </mxCell>
                <mxCell id="oFZf1y7Qb0xrdnDtwELs-11" value="&lt;p style=&quot;margin:0px;margin-top:4px;text-align:center;&quot;&gt;&lt;i&gt;&amp;lt;&amp;lt;Interface&amp;gt;&amp;gt;&lt;/i&gt;&lt;br&gt;&lt;b&gt;IBeer&lt;/b&gt;&lt;/p&gt;&lt;hr size=&quot;1&quot;&gt;&lt;p style=&quot;margin:0px;margin-left:4px;&quot;&gt;+ makebeer(): virtual void&lt;/p&gt;&lt;p style=&quot;margin:0px;margin-left:4px;&quot;&gt;&lt;br&gt;&lt;/p&gt;" style="verticalAlign=top;align=left;overflow=fill;fontSize=12;fontFamily=Helvetica;html=1;whiteSpace=wrap;" parent="WIyWlLk6GJQsqaUBKTNV-1" vertex="1">
                    <mxGeometry x="625" y="229" width="190" height="80" as="geometry"/>
                </mxCell>
                <mxCell id="oFZf1y7Qb0xrdnDtwELs-12" value="&lt;p style=&quot;margin:0px;margin-top:4px;text-align:center;&quot;&gt;&lt;i&gt;&amp;lt;&amp;lt;Interface&amp;gt;&amp;gt;&lt;/i&gt;&lt;br&gt;&lt;b&gt;ISmoothie&lt;/b&gt;&lt;/p&gt;&lt;hr size=&quot;1&quot;&gt;&lt;p style=&quot;margin:0px;margin-left:4px;&quot;&gt;+ makesmoothie(): virtual void&lt;/p&gt;&lt;p style=&quot;margin:0px;margin-left:4px;&quot;&gt;&lt;br&gt;&lt;/p&gt;" style="verticalAlign=top;align=left;overflow=fill;fontSize=12;fontFamily=Helvetica;html=1;whiteSpace=wrap;" parent="WIyWlLk6GJQsqaUBKTNV-1" vertex="1">
                    <mxGeometry x="625" y="429" width="190" height="80" as="geometry"/>
                </mxCell>
                <mxCell id="oFZf1y7Qb0xrdnDtwELs-13" value="" style="endArrow=classic;html=1;rounded=0;entryX=1;entryY=0.5;entryDx=0;entryDy=0;" parent="WIyWlLk6GJQsqaUBKTNV-1" target="oFZf1y7Qb0xrdnDtwELs-3" edge="1">
                    <mxGeometry width="50" height="50" relative="1" as="geometry">
                        <mxPoint x="885" y="89" as="sourcePoint"/>
                        <mxPoint x="895" y="219" as="targetPoint"/>
                    </mxGeometry>
                </mxCell>
                <mxCell id="oFZf1y7Qb0xrdnDtwELs-14" value="" style="endArrow=none;html=1;rounded=0;entryX=0;entryY=0.5;entryDx=0;entryDy=0;" parent="WIyWlLk6GJQsqaUBKTNV-1" edge="1">
                    <mxGeometry width="50" height="50" relative="1" as="geometry">
                        <mxPoint x="885" y="89" as="sourcePoint"/>
                        <mxPoint x="935" y="39" as="targetPoint"/>
                    </mxGeometry>
                </mxCell>
                <mxCell id="oFZf1y7Qb0xrdnDtwELs-15" value="" style="endArrow=none;html=1;rounded=0;entryX=0;entryY=0.5;entryDx=0;entryDy=0;" parent="WIyWlLk6GJQsqaUBKTNV-1" target="oFZf1y7Qb0xrdnDtwELs-20" edge="1">
                    <mxGeometry width="50" height="50" relative="1" as="geometry">
                        <mxPoint x="885" y="89" as="sourcePoint"/>
                        <mxPoint x="925" y="139" as="targetPoint"/>
                    </mxGeometry>
                </mxCell>
                <mxCell id="oFZf1y7Qb0xrdnDtwELs-16" value="Shiraz" style="swimlane;fontStyle=0;childLayout=stackLayout;horizontal=1;startSize=30;horizontalStack=0;resizeParent=1;resizeParentMax=0;resizeLast=0;collapsible=1;marginBottom=0;whiteSpace=wrap;html=1;" parent="WIyWlLk6GJQsqaUBKTNV-1" vertex="1">
                    <mxGeometry x="935" y="10" width="140" height="60" as="geometry"/>
                </mxCell>
                <mxCell id="0" value="&lt;span style=&quot;text-align: left;&quot;&gt;+ makewine(): void&lt;/span&gt;" style="text;html=1;align=center;verticalAlign=middle;resizable=0;points=[];autosize=1;strokeColor=none;fillColor=none;" parent="oFZf1y7Qb0xrdnDtwELs-16" vertex="1">
                    <mxGeometry y="30" width="140" height="30" as="geometry"/>
                </mxCell>
                <mxCell id="oFZf1y7Qb0xrdnDtwELs-20" value="Merlot" style="swimlane;fontStyle=0;childLayout=stackLayout;horizontal=1;startSize=30;horizontalStack=0;resizeParent=1;resizeParentMax=0;resizeLast=0;collapsible=1;marginBottom=0;whiteSpace=wrap;html=1;" parent="WIyWlLk6GJQsqaUBKTNV-1" vertex="1">
                    <mxGeometry x="935" y="109" width="140" height="60" as="geometry"/>
                </mxCell>
                <mxCell id="1" value="&lt;span style=&quot;text-align: left;&quot;&gt;+ makewine(): void&lt;/span&gt;" style="text;html=1;align=center;verticalAlign=middle;resizable=0;points=[];autosize=1;strokeColor=none;fillColor=none;" parent="oFZf1y7Qb0xrdnDtwELs-20" vertex="1">
                    <mxGeometry y="30" width="140" height="30" as="geometry"/>
                </mxCell>
                <mxCell id="oFZf1y7Qb0xrdnDtwELs-21" value="" style="endArrow=none;html=1;rounded=0;entryX=0;entryY=0.5;entryDx=0;entryDy=0;" parent="WIyWlLk6GJQsqaUBKTNV-1" target="oFZf1y7Qb0xrdnDtwELs-23" edge="1">
                    <mxGeometry width="50" height="50" relative="1" as="geometry">
                        <mxPoint x="886" y="270" as="sourcePoint"/>
                        <mxPoint x="926" y="230" as="targetPoint"/>
                    </mxGeometry>
                </mxCell>
                <mxCell id="oFZf1y7Qb0xrdnDtwELs-22" value="" style="endArrow=none;html=1;rounded=0;entryX=0;entryY=0.5;entryDx=0;entryDy=0;" parent="WIyWlLk6GJQsqaUBKTNV-1" target="oFZf1y7Qb0xrdnDtwELs-24" edge="1">
                    <mxGeometry width="50" height="50" relative="1" as="geometry">
                        <mxPoint x="886" y="270" as="sourcePoint"/>
                        <mxPoint x="926" y="320" as="targetPoint"/>
                    </mxGeometry>
                </mxCell>
                <mxCell id="oFZf1y7Qb0xrdnDtwELs-23" value="Budweiser" style="swimlane;fontStyle=0;childLayout=stackLayout;horizontal=1;startSize=30;horizontalStack=0;resizeParent=1;resizeParentMax=0;resizeLast=0;collapsible=1;marginBottom=0;whiteSpace=wrap;html=1;" parent="WIyWlLk6GJQsqaUBKTNV-1" vertex="1">
                    <mxGeometry x="936" y="190" width="140" height="60" as="geometry"/>
                </mxCell>
                <mxCell id="2" value="&lt;span style=&quot;text-align: left;&quot;&gt;+ makebeer(): void&lt;/span&gt;" style="text;html=1;align=center;verticalAlign=middle;resizable=0;points=[];autosize=1;strokeColor=none;fillColor=none;" parent="oFZf1y7Qb0xrdnDtwELs-23" vertex="1">
                    <mxGeometry y="30" width="140" height="30" as="geometry"/>
                </mxCell>
                <mxCell id="oFZf1y7Qb0xrdnDtwELs-24" value="Corona" style="swimlane;fontStyle=0;childLayout=stackLayout;horizontal=1;startSize=30;horizontalStack=0;resizeParent=1;resizeParentMax=0;resizeLast=0;collapsible=1;marginBottom=0;whiteSpace=wrap;html=1;" parent="WIyWlLk6GJQsqaUBKTNV-1" vertex="1">
                    <mxGeometry x="936" y="290" width="140" height="60" as="geometry"/>
                </mxCell>
                <mxCell id="4" value="&lt;span style=&quot;text-align: left;&quot;&gt;+ makebeer(): void&lt;/span&gt;" style="text;html=1;align=center;verticalAlign=middle;resizable=0;points=[];autosize=1;strokeColor=none;fillColor=none;" parent="oFZf1y7Qb0xrdnDtwELs-24" vertex="1">
                    <mxGeometry y="30" width="140" height="30" as="geometry"/>
                </mxCell>
                <mxCell id="oFZf1y7Qb0xrdnDtwELs-25" value="" style="endArrow=classic;html=1;rounded=0;entryX=1;entryY=0.5;entryDx=0;entryDy=0;" parent="WIyWlLk6GJQsqaUBKTNV-1" edge="1">
                    <mxGeometry width="50" height="50" relative="1" as="geometry">
                        <mxPoint x="885" y="268.47" as="sourcePoint"/>
                        <mxPoint x="815" y="268.47" as="targetPoint"/>
                    </mxGeometry>
                </mxCell>
                <mxCell id="oFZf1y7Qb0xrdnDtwELs-26" value="" style="endArrow=none;html=1;rounded=0;entryX=0;entryY=0.5;entryDx=0;entryDy=0;" parent="WIyWlLk6GJQsqaUBKTNV-1" target="oFZf1y7Qb0xrdnDtwELs-28" edge="1">
                    <mxGeometry width="50" height="50" relative="1" as="geometry">
                        <mxPoint x="886" y="469" as="sourcePoint"/>
                        <mxPoint x="926" y="429" as="targetPoint"/>
                    </mxGeometry>
                </mxCell>
                <mxCell id="oFZf1y7Qb0xrdnDtwELs-27" value="" style="endArrow=none;html=1;rounded=0;entryX=0;entryY=0.5;entryDx=0;entryDy=0;" parent="WIyWlLk6GJQsqaUBKTNV-1" target="oFZf1y7Qb0xrdnDtwELs-29" edge="1">
                    <mxGeometry width="50" height="50" relative="1" as="geometry">
                        <mxPoint x="886" y="469" as="sourcePoint"/>
                        <mxPoint x="926" y="519" as="targetPoint"/>
                    </mxGeometry>
                </mxCell>
                <mxCell id="oFZf1y7Qb0xrdnDtwELs-28" value="Banana" style="swimlane;fontStyle=0;childLayout=stackLayout;horizontal=1;startSize=30;horizontalStack=0;resizeParent=1;resizeParentMax=0;resizeLast=0;collapsible=1;marginBottom=0;whiteSpace=wrap;html=1;" parent="WIyWlLk6GJQsqaUBKTNV-1" vertex="1">
                    <mxGeometry x="936" y="389" width="140" height="70" as="geometry"/>
                </mxCell>
                <mxCell id="5" value="&lt;span style=&quot;color: rgb(240, 240, 240); font-family: Helvetica; font-size: 12px; font-style: normal; font-variant-ligatures: normal; font-variant-caps: normal; font-weight: 400; letter-spacing: normal; orphans: 2; text-align: left; text-indent: 0px; text-transform: none; widows: 2; word-spacing: 0px; -webkit-text-stroke-width: 0px; background-color: rgb(42, 37, 47); text-decoration-thickness: initial; text-decoration-style: initial; text-decoration-color: initial; float: none; display: inline !important;&quot;&gt;+ makesmoothie(): void&lt;/span&gt;" style="text;whiteSpace=wrap;html=1;" parent="oFZf1y7Qb0xrdnDtwELs-28" vertex="1">
                    <mxGeometry y="30" width="140" height="40" as="geometry"/>
                </mxCell>
                <mxCell id="oFZf1y7Qb0xrdnDtwELs-29" value="Mango" style="swimlane;fontStyle=0;childLayout=stackLayout;horizontal=1;startSize=30;horizontalStack=0;resizeParent=1;resizeParentMax=0;resizeLast=0;collapsible=1;marginBottom=0;whiteSpace=wrap;html=1;" parent="WIyWlLk6GJQsqaUBKTNV-1" vertex="1">
                    <mxGeometry x="936" y="490" width="140" height="70" as="geometry"/>
                </mxCell>
                <mxCell id="6" value="&lt;span style=&quot;color: rgb(240, 240, 240); font-family: Helvetica; font-size: 12px; font-style: normal; font-variant-ligatures: normal; font-variant-caps: normal; font-weight: 400; letter-spacing: normal; orphans: 2; text-align: left; text-indent: 0px; text-transform: none; widows: 2; word-spacing: 0px; -webkit-text-stroke-width: 0px; background-color: rgb(42, 37, 47); text-decoration-thickness: initial; text-decoration-style: initial; text-decoration-color: initial; float: none; display: inline !important;&quot;&gt;+ makesmoothie(): void&lt;/span&gt;" style="text;whiteSpace=wrap;html=1;" parent="oFZf1y7Qb0xrdnDtwELs-29" vertex="1">
                    <mxGeometry y="30" width="140" height="40" as="geometry"/>
                </mxCell>
                <mxCell id="oFZf1y7Qb0xrdnDtwELs-30" value="" style="endArrow=classic;html=1;rounded=0;entryX=1;entryY=0.5;entryDx=0;entryDy=0;" parent="WIyWlLk6GJQsqaUBKTNV-1" edge="1">
                    <mxGeometry width="50" height="50" relative="1" as="geometry">
                        <mxPoint x="885" y="468" as="sourcePoint"/>
                        <mxPoint x="815" y="468.41" as="targetPoint"/>
                    </mxGeometry>
                </mxCell>
                <mxCell id="oFZf1y7Qb0xrdnDtwELs-32" value="" style="endArrow=classic;html=1;rounded=0;entryX=0.482;entryY=1.208;entryDx=0;entryDy=0;entryPerimeter=0;" parent="WIyWlLk6GJQsqaUBKTNV-1" target="oFZf1y7Qb0xrdnDtwELs-10" edge="1">
                    <mxGeometry width="50" height="50" relative="1" as="geometry">
                        <mxPoint x="357" y="569" as="sourcePoint"/>
                        <mxPoint x="370" y="559" as="targetPoint"/>
                    </mxGeometry>
                </mxCell>
                <mxCell id="oFZf1y7Qb0xrdnDtwELs-33" value="" style="endArrow=none;html=1;rounded=0;" parent="WIyWlLk6GJQsqaUBKTNV-1" edge="1">
                    <mxGeometry width="50" height="50" relative="1" as="geometry">
                        <mxPoint x="520" y="609" as="sourcePoint"/>
                        <mxPoint x="360" y="569" as="targetPoint"/>
                    </mxGeometry>
                </mxCell>
                <mxCell id="oFZf1y7Qb0xrdnDtwELs-34" value="" style="endArrow=none;html=1;rounded=0;" parent="WIyWlLk6GJQsqaUBKTNV-1" edge="1">
                    <mxGeometry width="50" height="50" relative="1" as="geometry">
                        <mxPoint x="360" y="569" as="sourcePoint"/>
                        <mxPoint x="200" y="609" as="targetPoint"/>
                    </mxGeometry>
                </mxCell>
                <mxCell id="oFZf1y7Qb0xrdnDtwELs-35" value="Dubai_Bartender" style="swimlane;fontStyle=0;childLayout=stackLayout;horizontal=1;startSize=30;horizontalStack=0;resizeParent=1;resizeParentMax=0;resizeLast=0;collapsible=1;marginBottom=0;whiteSpace=wrap;html=1;" parent="WIyWlLk6GJQsqaUBKTNV-1" vertex="1">
                    <mxGeometry x="130" y="609" width="140" height="150" as="geometry"/>
                </mxCell>
                <mxCell id="oFZf1y7Qb0xrdnDtwELs-36" value="+ display(): void" style="text;strokeColor=none;fillColor=none;align=left;verticalAlign=middle;spacingLeft=4;spacingRight=4;overflow=hidden;points=[[0,0.5],[1,0.5]];portConstraint=eastwest;rotatable=0;whiteSpace=wrap;html=1;" parent="oFZf1y7Qb0xrdnDtwELs-35" vertex="1">
                    <mxGeometry y="30" width="140" height="30" as="geometry"/>
                </mxCell>
                <mxCell id="oFZf1y7Qb0xrdnDtwELs-37" value="+ makesmoothie():&amp;nbsp; void" style="text;strokeColor=none;fillColor=none;align=left;verticalAlign=middle;spacingLeft=4;spacingRight=4;overflow=hidden;points=[[0,0.5],[1,0.5]];portConstraint=eastwest;rotatable=0;whiteSpace=wrap;html=1;" parent="oFZf1y7Qb0xrdnDtwELs-35" vertex="1">
                    <mxGeometry y="60" width="140" height="30" as="geometry"/>
                </mxCell>
                <mxCell id="oFZf1y7Qb0xrdnDtwELs-38" value="+ makewine() : void" style="text;strokeColor=none;fillColor=none;align=left;verticalAlign=middle;spacingLeft=4;spacingRight=4;overflow=hidden;points=[[0,0.5],[1,0.5]];portConstraint=eastwest;rotatable=0;whiteSpace=wrap;html=1;" parent="oFZf1y7Qb0xrdnDtwELs-35" vertex="1">
                    <mxGeometry y="90" width="140" height="30" as="geometry"/>
                </mxCell>
                <mxCell id="oFZf1y7Qb0xrdnDtwELs-47" value="+ makebeer(): void" style="text;strokeColor=none;fillColor=none;align=left;verticalAlign=middle;spacingLeft=4;spacingRight=4;overflow=hidden;points=[[0,0.5],[1,0.5]];portConstraint=eastwest;rotatable=0;whiteSpace=wrap;html=1;" parent="oFZf1y7Qb0xrdnDtwELs-35" vertex="1">
                    <mxGeometry y="120" width="140" height="30" as="geometry"/>
                </mxCell>
                <mxCell id="oFZf1y7Qb0xrdnDtwELs-40" value="" style="endArrow=classic;html=1;rounded=0;entryX=0;entryY=0.5;entryDx=0;entryDy=0;" parent="WIyWlLk6GJQsqaUBKTNV-1" target="oFZf1y7Qb0xrdnDtwELs-11" edge="1">
                    <mxGeometry width="50" height="50" relative="1" as="geometry">
                        <mxPoint x="360" y="239" as="sourcePoint"/>
                        <mxPoint x="595" y="119" as="targetPoint"/>
                    </mxGeometry>
                </mxCell>
                <mxCell id="oFZf1y7Qb0xrdnDtwELs-39" value="" style="endArrow=classic;html=1;rounded=0;entryX=0;entryY=0.5;entryDx=0;entryDy=0;" parent="WIyWlLk6GJQsqaUBKTNV-1" target="oFZf1y7Qb0xrdnDtwELs-3" edge="1">
                    <mxGeometry width="50" height="50" relative="1" as="geometry">
                        <mxPoint x="370" y="208" as="sourcePoint"/>
                        <mxPoint x="440" y="159" as="targetPoint"/>
                    </mxGeometry>
                </mxCell>
                <mxCell id="oFZf1y7Qb0xrdnDtwELs-41" value="" style="endArrow=classic;html=1;rounded=0;entryX=0;entryY=0.5;entryDx=0;entryDy=0;" parent="WIyWlLk6GJQsqaUBKTNV-1" source="oFZf1y7Qb0xrdnDtwELs-0" target="oFZf1y7Qb0xrdnDtwELs-12" edge="1">
                    <mxGeometry width="50" height="50" relative="1" as="geometry">
                        <mxPoint x="380" y="260" as="sourcePoint"/>
                        <mxPoint x="645" y="290" as="targetPoint"/>
                    </mxGeometry>
                </mxCell>
                <mxCell id="oFZf1y7Qb0xrdnDtwELs-42" value="Vietnam_Bartender" style="swimlane;fontStyle=0;childLayout=stackLayout;horizontal=1;startSize=30;horizontalStack=0;resizeParent=1;resizeParentMax=0;resizeLast=0;collapsible=1;marginBottom=0;whiteSpace=wrap;html=1;" parent="WIyWlLk6GJQsqaUBKTNV-1" vertex="1">
                    <mxGeometry x="445" y="609" width="140" height="90" as="geometry"/>
                </mxCell>
                <mxCell id="oFZf1y7Qb0xrdnDtwELs-43" value="+ display(): void" style="text;strokeColor=none;fillColor=none;align=left;verticalAlign=middle;spacingLeft=4;spacingRight=4;overflow=hidden;points=[[0,0.5],[1,0.5]];portConstraint=eastwest;rotatable=0;whiteSpace=wrap;html=1;" parent="oFZf1y7Qb0xrdnDtwELs-42" vertex="1">
                    <mxGeometry y="30" width="140" height="30" as="geometry"/>
                </mxCell>
                <mxCell id="oFZf1y7Qb0xrdnDtwELs-45" value="+ makesmoothie(): void" style="text;strokeColor=none;fillColor=none;align=left;verticalAlign=middle;spacingLeft=4;spacingRight=4;overflow=hidden;points=[[0,0.5],[1,0.5]];portConstraint=eastwest;rotatable=0;whiteSpace=wrap;html=1;" parent="oFZf1y7Qb0xrdnDtwELs-42" vertex="1">
                    <mxGeometry y="60" width="140" height="30" as="geometry"/>
                </mxCell>
            </root>
        </mxGraphModel>
    </diagram>
    <diagram id="3Ic9sj0Fq5lNPhEOaU6o" name="Page-2">
        <mxGraphModel dx="870" dy="402" grid="1" gridSize="10" guides="1" tooltips="1" connect="1" arrows="1" fold="1" page="1" pageScale="1" pageWidth="850" pageHeight="1100" math="0" shadow="0">
            <root>
                <mxCell id="0"/>
                <mxCell id="1" parent="0"/>
                <mxCell id="FbgnwC5dTtfhzQTBBope-1" value="Bartender" style="swimlane;fontStyle=2;align=center;verticalAlign=top;childLayout=stackLayout;horizontal=1;startSize=26;horizontalStack=0;resizeParent=1;resizeLast=0;collapsible=1;marginBottom=0;rounded=0;shadow=0;strokeWidth=1;" parent="1" vertex="1">
                    <mxGeometry x="220" y="90" width="160" height="150" as="geometry">
                        <mxRectangle x="230" y="140" width="160" height="26" as="alternateBounds"/>
                    </mxGeometry>
                </mxCell>
                <mxCell id="FbgnwC5dTtfhzQTBBope-2" value="+ display(): void" style="text;align=left;verticalAlign=top;spacingLeft=4;spacingRight=4;overflow=hidden;rotatable=0;points=[[0,0.5],[1,0.5]];portConstraint=eastwest;rounded=0;shadow=0;html=0;" parent="FbgnwC5dTtfhzQTBBope-1" vertex="1">
                    <mxGeometry y="26" width="160" height="26" as="geometry"/>
                </mxCell>
                <mxCell id="DScALyEEhBdxpQMEDbfi-1" value="+ wine(): void&#10;" style="text;align=left;verticalAlign=top;spacingLeft=4;spacingRight=4;overflow=hidden;rotatable=0;points=[[0,0.5],[1,0.5]];portConstraint=eastwest;" parent="FbgnwC5dTtfhzQTBBope-1" vertex="1">
                    <mxGeometry y="52" width="160" height="30" as="geometry"/>
                </mxCell>
                <mxCell id="l1rEF7DSzSsXEUlCmQqh-1" value="+ beer(): void&#10;" style="text;align=left;verticalAlign=top;spacingLeft=4;spacingRight=4;overflow=hidden;rotatable=0;points=[[0,0.5],[1,0.5]];portConstraint=eastwest;" parent="FbgnwC5dTtfhzQTBBope-1" vertex="1">
                    <mxGeometry y="82" width="160" height="30" as="geometry"/>
                </mxCell>
                <mxCell id="Dm3nXTrG7LEx4fLmji7b-6" value="+ smoothie(): void&#10;" style="text;align=left;verticalAlign=top;spacingLeft=4;spacingRight=4;overflow=hidden;rotatable=0;points=[[0,0.5],[1,0.5]];portConstraint=eastwest;" parent="FbgnwC5dTtfhzQTBBope-1" vertex="1">
                    <mxGeometry y="112" width="160" height="30" as="geometry"/>
                </mxCell>
                <mxCell id="Dm3nXTrG7LEx4fLmji7b-7" value="Vietnam_Bartender" style="swimlane;fontStyle=0;childLayout=stackLayout;horizontal=1;startSize=30;horizontalStack=0;resizeParent=1;resizeParentMax=0;resizeLast=0;collapsible=1;marginBottom=0;whiteSpace=wrap;html=1;" parent="1" vertex="1">
                    <mxGeometry x="230" y="360" width="140" height="56" as="geometry"/>
                </mxCell>
                <mxCell id="Dm3nXTrG7LEx4fLmji7b-17" value="+ display(): void" style="text;align=left;verticalAlign=top;spacingLeft=4;spacingRight=4;overflow=hidden;rotatable=0;points=[[0,0.5],[1,0.5]];portConstraint=eastwest;rounded=0;shadow=0;html=0;" parent="Dm3nXTrG7LEx4fLmji7b-7" vertex="1">
                    <mxGeometry y="30" width="140" height="26" as="geometry"/>
                </mxCell>
                <mxCell id="Dm3nXTrG7LEx4fLmji7b-12" value="" style="endArrow=classic;html=1;entryX=0.5;entryY=1;entryDx=0;entryDy=0;exitX=0.5;exitY=0;exitDx=0;exitDy=0;" parent="1" target="FbgnwC5dTtfhzQTBBope-1" edge="1" source="Dm3nXTrG7LEx4fLmji7b-7">
                    <mxGeometry width="50" height="50" relative="1" as="geometry">
                        <mxPoint x="300" y="350" as="sourcePoint"/>
                        <mxPoint x="220" y="300" as="targetPoint"/>
                    </mxGeometry>
                </mxCell>
            </root>
        </mxGraphModel>
    </diagram>
    <diagram id="WgFgY1iBi4VRndInF5_W" name="Page-3">
        <mxGraphModel dx="1243" dy="574" grid="1" gridSize="10" guides="1" tooltips="1" connect="1" arrows="1" fold="1" page="1" pageScale="1" pageWidth="850" pageHeight="1100" math="0" shadow="0">
            <root>
                <mxCell id="0"/>
                <mxCell id="1" parent="0"/>
                <mxCell id="ijLNiQ23BGzJaAP_g5yQ-1" style="edgeStyle=none;html=1;exitX=0.5;exitY=0;exitDx=0;exitDy=0;entryX=0.5;entryY=1;entryDx=0;entryDy=0;" parent="1" source="zil08VOKVQT1nGsfsDCD-26" target="zil08VOKVQT1nGsfsDCD-1" edge="1">
                    <mxGeometry relative="1" as="geometry">
                        <mxPoint x="350" y="360" as="targetPoint"/>
                    </mxGeometry>
                </mxCell>
                <mxCell id="zil08VOKVQT1nGsfsDCD-1" value="Bartender" style="swimlane;fontStyle=2;align=center;verticalAlign=top;childLayout=stackLayout;horizontal=1;startSize=26;horizontalStack=0;resizeParent=1;resizeLast=0;collapsible=1;marginBottom=0;rounded=0;shadow=0;strokeWidth=1;" parent="1" vertex="1">
                    <mxGeometry x="320" y="200" width="160" height="120" as="geometry">
                        <mxRectangle x="230" y="140" width="160" height="26" as="alternateBounds"/>
                    </mxGeometry>
                </mxCell>
                <mxCell id="zil08VOKVQT1nGsfsDCD-2" value="+ display(): void" style="text;align=left;verticalAlign=top;spacingLeft=4;spacingRight=4;overflow=hidden;rotatable=0;points=[[0,0.5],[1,0.5]];portConstraint=eastwest;rounded=0;shadow=0;html=0;" parent="zil08VOKVQT1nGsfsDCD-1" vertex="1">
                    <mxGeometry y="26" width="160" height="26" as="geometry"/>
                </mxCell>
                <mxCell id="zil08VOKVQT1nGsfsDCD-5" value="+ smoothie(): void&#10;" style="text;align=left;verticalAlign=top;spacingLeft=4;spacingRight=4;overflow=hidden;rotatable=0;points=[[0,0.5],[1,0.5]];portConstraint=eastwest;" parent="zil08VOKVQT1nGsfsDCD-1" vertex="1">
                    <mxGeometry y="52" width="160" height="30" as="geometry"/>
                </mxCell>
                <mxCell id="zil08VOKVQT1nGsfsDCD-6" value="Vietnam_Bartender" style="swimlane;fontStyle=0;childLayout=stackLayout;horizontal=1;startSize=30;horizontalStack=0;resizeParent=1;resizeParentMax=0;resizeLast=0;collapsible=1;marginBottom=0;whiteSpace=wrap;html=1;" parent="1" vertex="1">
                    <mxGeometry x="210" y="480" width="140" height="56" as="geometry"/>
                </mxCell>
                <mxCell id="zil08VOKVQT1nGsfsDCD-7" value="+ display(): void" style="text;align=left;verticalAlign=top;spacingLeft=4;spacingRight=4;overflow=hidden;rotatable=0;points=[[0,0.5],[1,0.5]];portConstraint=eastwest;rounded=0;shadow=0;html=0;" parent="zil08VOKVQT1nGsfsDCD-6" vertex="1">
                    <mxGeometry y="30" width="140" height="26" as="geometry"/>
                </mxCell>
                <mxCell id="zil08VOKVQT1nGsfsDCD-8" value="" style="endArrow=classic;html=1;entryX=0.5;entryY=1;entryDx=0;entryDy=0;exitX=0.5;exitY=0;exitDx=0;exitDy=0;" parent="1" target="zil08VOKVQT1nGsfsDCD-1" edge="1" source="zil08VOKVQT1nGsfsDCD-6">
                    <mxGeometry width="50" height="50" relative="1" as="geometry">
                        <mxPoint x="210" y="480" as="sourcePoint"/>
                        <mxPoint x="300" y="420" as="targetPoint"/>
                    </mxGeometry>
                </mxCell>
                <mxCell id="zil08VOKVQT1nGsfsDCD-12" value="Wine" style="swimlane;fontStyle=0;childLayout=stackLayout;horizontal=1;startSize=30;horizontalStack=0;resizeParent=1;resizeParentMax=0;resizeLast=0;collapsible=1;marginBottom=0;whiteSpace=wrap;html=1;" parent="1" vertex="1">
                    <mxGeometry x="100" y="300" width="140" height="60" as="geometry"/>
                </mxCell>
                <mxCell id="zil08VOKVQT1nGsfsDCD-13" value="wine(): void" style="text;strokeColor=none;fillColor=none;align=left;verticalAlign=middle;spacingLeft=4;spacingRight=4;overflow=hidden;points=[[0,0.5],[1,0.5]];portConstraint=eastwest;rotatable=0;whiteSpace=wrap;html=1;" parent="zil08VOKVQT1nGsfsDCD-12" vertex="1">
                    <mxGeometry y="30" width="140" height="30" as="geometry"/>
                </mxCell>
                <mxCell id="zil08VOKVQT1nGsfsDCD-16" value="" style="endArrow=classic;html=1;entryX=0.462;entryY=1.104;entryDx=0;entryDy=0;entryPerimeter=0;exitX=0.5;exitY=0;exitDx=0;exitDy=0;" parent="1" source="zil08VOKVQT1nGsfsDCD-6" target="zil08VOKVQT1nGsfsDCD-13" edge="1">
                    <mxGeometry width="50" height="50" relative="1" as="geometry">
                        <mxPoint x="130" y="350" as="sourcePoint"/>
                        <mxPoint x="180" y="300" as="targetPoint"/>
                    </mxGeometry>
                </mxCell>
                <mxCell id="zil08VOKVQT1nGsfsDCD-18" value="Beer" style="swimlane;fontStyle=0;childLayout=stackLayout;horizontal=1;startSize=30;horizontalStack=0;resizeParent=1;resizeParentMax=0;resizeLast=0;collapsible=1;marginBottom=0;whiteSpace=wrap;html=1;" parent="1" vertex="1">
                    <mxGeometry x="560" y="297" width="140" height="60" as="geometry"/>
                </mxCell>
                <mxCell id="zil08VOKVQT1nGsfsDCD-17" value="+ beer(): void&#10;" style="text;align=left;verticalAlign=top;spacingLeft=4;spacingRight=4;overflow=hidden;rotatable=0;points=[[0,0.5],[1,0.5]];portConstraint=eastwest;" parent="zil08VOKVQT1nGsfsDCD-18" vertex="1">
                    <mxGeometry y="30" width="140" height="30" as="geometry"/>
                </mxCell>
                <mxCell id="zil08VOKVQT1nGsfsDCD-20" value="" style="endArrow=classic;html=1;entryX=0.523;entryY=1.197;entryDx=0;entryDy=0;entryPerimeter=0;exitX=0.5;exitY=0;exitDx=0;exitDy=0;" parent="1" source="zil08VOKVQT1nGsfsDCD-6" target="zil08VOKVQT1nGsfsDCD-17" edge="1">
                    <mxGeometry width="50" height="50" relative="1" as="geometry">
                        <mxPoint x="250" y="470" as="sourcePoint"/>
                        <mxPoint x="114.68000000000006" y="353.1200000000001" as="targetPoint"/>
                    </mxGeometry>
                </mxCell>
                <mxCell id="zil08VOKVQT1nGsfsDCD-21" value="Smoothie" style="swimlane;fontStyle=0;childLayout=stackLayout;horizontal=1;startSize=30;horizontalStack=0;resizeParent=1;resizeParentMax=0;resizeLast=0;collapsible=1;marginBottom=0;whiteSpace=wrap;html=1;" parent="1" vertex="1">
                    <mxGeometry x="340" y="660" width="140" height="60" as="geometry"/>
                </mxCell>
                <mxCell id="zil08VOKVQT1nGsfsDCD-22" value="+ smoothie(): void&#10;" style="text;align=left;verticalAlign=top;spacingLeft=4;spacingRight=4;overflow=hidden;rotatable=0;points=[[0,0.5],[1,0.5]];portConstraint=eastwest;" parent="zil08VOKVQT1nGsfsDCD-21" vertex="1">
                    <mxGeometry y="30" width="140" height="30" as="geometry"/>
                </mxCell>
                <mxCell id="zil08VOKVQT1nGsfsDCD-24" value="" style="endArrow=classic;html=1;" parent="1" edge="1">
                    <mxGeometry width="50" height="50" relative="1" as="geometry">
                        <mxPoint x="280" y="540" as="sourcePoint"/>
                        <mxPoint x="410" y="660" as="targetPoint"/>
                    </mxGeometry>
                </mxCell>
                <mxCell id="sdZwWfFwLZnLMvceLcDx-1" style="edgeStyle=none;html=1;" edge="1" parent="1" source="zil08VOKVQT1nGsfsDCD-26">
                    <mxGeometry relative="1" as="geometry">
                        <mxPoint x="410" y="660" as="targetPoint"/>
                    </mxGeometry>
                </mxCell>
                <mxCell id="zil08VOKVQT1nGsfsDCD-26" value="Dubai_Bartender" style="swimlane;fontStyle=0;childLayout=stackLayout;horizontal=1;startSize=30;horizontalStack=0;resizeParent=1;resizeParentMax=0;resizeLast=0;collapsible=1;marginBottom=0;whiteSpace=wrap;html=1;" parent="1" vertex="1">
                    <mxGeometry x="510" y="470" width="140" height="56" as="geometry"/>
                </mxCell>
                <mxCell id="zil08VOKVQT1nGsfsDCD-27" value="+ display(): void" style="text;align=left;verticalAlign=top;spacingLeft=4;spacingRight=4;overflow=hidden;rotatable=0;points=[[0,0.5],[1,0.5]];portConstraint=eastwest;rounded=0;shadow=0;html=0;" parent="zil08VOKVQT1nGsfsDCD-26" vertex="1">
                    <mxGeometry y="30" width="140" height="26" as="geometry"/>
                </mxCell>
            </root>
        </mxGraphModel>
    </diagram>
</mxfile>